<svg xmlns="http://www.w3.org/2000/svg" viewBox="0 0 24 24" fill="#1b5e20">
  <path d="M12,22A10,10 0 0,1 2,12A10,10 0 0,1 12,2A10,10 0 0,1 22,12A10,10 0 0,1 12,22M12,20A8,8 0 0,0 20,12A8,8 0 0,0 12,4A8,8 0 0,0 4,12A8,8 0 0,0 12,20M15.5,11A1.5,1.5 0 0,1 17,12.5A1.5,1.5 0 0,1 15.5,14A1.5,1.5 0 0,1 14,12.5A1.5,1.5 0 0,1 15.5,11M8.5,11A1.5,1.5 0 0,1 10,12.5A1.5,1.5 0 0,1 8.5,14A1.5,1.5 0 0,1 7,12.5A1.5,1.5 0 0,1 8.5,11M12,17.5C10.2,17.5 8.5,16.9 7.1,15.9L8.5,14.5C9.5,15.3 10.7,15.8 12,15.8C13.3,15.8 14.5,15.3 15.5,14.5L16.9,15.9C15.5,16.9 13.8,17.5 12,17.5Z"/>
</svg>